<svg xmlns="http://www.w3.org/2000/svg" version="1.1" xmlns:xlink="http://www.w3.org/1999/xlink" xmlns:svgjs="http://svgjs.com/svgjs" width="1000" height="1000"><rect width="1000" height="1000" rx="0" ry="0" fill="#ffffff"></rect><g transform="matrix(1.0948010089686098,0,0,1.0948010089686098,0.0016408128268494693,-9.48935849010013e-7)"><svg xmlns="http://www.w3.org/2000/svg" version="1.1" xmlns:xlink="http://www.w3.org/1999/xlink" xmlns:svgjs="http://svgjs.com/svgjs" width="913.405" height="913.408"><svg id="Group_93" data-name="Group 93" xmlns="http://www.w3.org/2000/svg" width="913.405" height="913.408" viewBox="0 0 913.405 913.408">
  <path id="Subtraction_8" data-name="Subtraction 8" d="M913.405,913.408v0H590.926l.109-155.3,193.3.136.089-132.654-193.29-.136.076-102.329,216.03.149.1-132.647L591.3,390.473,591.575.1,459.942,0H913.405V913.408Zm-463.16,0H0V0H114.029l-.374,522.785,159.184.116.143-197.089,159.177.116-.1,144.98-.317,442.479,18.5.013ZM432.261,189.489v0l-159.184-.116L273.213,0H432.391l-.129,189.487Z" transform="translate(0 0)"></path>
</svg></svg></g></svg>